<svg width="720" height="302" viewBox="0 0 720 302" fill="none" xmlns="http://www.w3.org/2000/svg">
<path fill-rule="evenodd" clip-rule="evenodd" d="M652.5 7.49999C654.075 9.11399 654.741 11.114 654.5 13.5C652.833 13.5 651.167 13.5 649.5 13.5C649.335 9.81799 649.501 6.15199 650 2.49999C651.241 0.57899 652.741 0.24599 654.5 1.49999C652.914 3.17299 652.247 5.17299 652.5 7.49999Z" fill="#070707"/>
<path fill-rule="evenodd" clip-rule="evenodd" d="M667.5 38.5C671.298 39.483 675.298 39.817 679.5 39.5C679.5 40.833 679.5 42.167 679.5 43.5C673.167 43.5 666.833 43.5 660.5 43.5C660.34 41.801 660.506 40.134 661 38.5C666.54 30.972 671.207 22.972 675 14.5C675.667 12.167 675.667 9.83301 675 7.50001C672.034 4.73501 669.367 5.06801 667 8.50001C666.505 10.473 666.338 12.473 666.5 14.5C664.833 14.5 663.167 14.5 661.5 14.5C661.5 12.833 661.5 11.167 661.5 9.50001C661.544 5.91001 663.211 3.41001 666.5 2.00001C669.5 1.33301 672.5 1.33301 675.5 2.00001C677.667 2.83301 679.167 4.33301 680 6.50001C680.81 11.257 680.476 15.924 679 20.5C674.906 26.359 671.073 32.359 667.5 38.5Z" fill="#0A0A0A"/>
<path fill-rule="evenodd" clip-rule="evenodd" d="M686.5 1.5C692.5 1.5 698.5 1.5 704.5 1.5C704.5 3.5 704.5 5.5 704.5 7.5C700.17 7.5 695.83 7.5 691.5 7.5C691.18 10.898 691.51 14.232 692.5 17.5C697.81 15.547 701.97 16.881 705 21.5C705.67 26.167 705.67 30.833 705 35.5C702.83 42.836 698 45.336 690.5 43C686.507 40.181 684.84 36.347 685.5 31.5C687.5 31.5 689.5 31.5 691.5 31.5C690.69 38.716 693.35 40.716 699.5 37.5C700.83 32.5 700.83 27.5 699.5 22.5C696.64 19.714 693.98 19.881 691.5 23C689.866 23.494 688.199 23.66 686.5 23.5C686.5 16.167 686.5 8.833 686.5 1.5Z" fill="#0E0E0E"/>
<path fill-rule="evenodd" clip-rule="evenodd" d="M652.5 7.5C653.5 7.5 654.5 7.5 655.5 7.5C655.795 9.735 655.461 11.735 654.5 13.5C654.741 11.114 654.075 9.114 652.5 7.5Z" fill="#565656"/>
<path fill-rule="evenodd" clip-rule="evenodd" d="M661.5 9.5C661.5 11.167 661.5 12.833 661.5 14.5C663.167 14.5 664.833 14.5 666.5 14.5C664.735 15.461 662.735 15.795 660.5 15.5C660.205 13.265 660.539 11.265 661.5 9.5Z" fill="#8F8F8F"/>
<path fill-rule="evenodd" clip-rule="evenodd" d="M522.5 29.5C524.76 30.238 524.927 31.238 523 32.5C521.272 31.648 521.105 30.648 522.5 29.5Z" fill="#EBA64A"/>
<path fill-rule="evenodd" clip-rule="evenodd" d="M515.5 37.5C518.674 37.952 519.007 38.952 516.5 40.5C514.481 39.867 514.147 38.867 515.5 37.5Z" fill="#F0AB4D"/>
<path fill-rule="evenodd" clip-rule="evenodd" d="M667.5 38.5C671.833 38.5 676.167 38.5 680.5 38.5C680.784 40.415 680.451 42.081 679.5 43.5C679.5 42.167 679.5 40.833 679.5 39.5C675.298 39.817 671.298 39.483 667.5 38.5Z" fill="#595959"/>
<path fill-rule="evenodd" clip-rule="evenodd" d="M446.5 184.5C430.9 189.307 415.234 189.64 399.5 185.5C397.579 184.637 395.579 183.971 393.5 183.5C382.831 178.82 373.497 172.154 365.5 163.5C350.374 143.102 345.874 120.436 352 95.5C368.65 55.923 398.15 40.089 440.5 48C468.472 56.972 485.639 75.806 492 104.5C495.198 141.784 480.032 168.451 446.5 184.5Z" fill="#965918"/>
<path fill-rule="evenodd" clip-rule="evenodd" d="M431.5 50.5C434.829 50.215 437.829 50.882 440.5 52.5C437.273 52.324 434.273 51.657 431.5 50.5Z" fill="#3B322D"/>
<path fill-rule="evenodd" clip-rule="evenodd" d="M400.5 52.5C399.22 53.931 397.553 54.598 395.5 54.5C396.78 53.069 398.447 52.402 400.5 52.5Z" fill="#35271D"/>
<path fill-rule="evenodd" clip-rule="evenodd" d="M180.5 54.5C198.552 55.987 216.552 57.987 234.5 60.5C238.272 75.435 238.438 90.435 235 105.5C230.645 123.207 223.312 139.54 213 154.5C201.506 170.152 190.506 186.152 180 202.5C181.377 190.524 183.044 178.524 185 166.5C189.376 128.898 187.876 91.565 180.5 54.5Z" fill="#ACB4BF"/>
<path fill-rule="evenodd" clip-rule="evenodd" d="M395.5 54.5C394.486 55.674 393.153 56.34 391.5 56.5C392.287 54.896 393.62 54.229 395.5 54.5Z" fill="#3C3530"/>
<path fill-rule="evenodd" clip-rule="evenodd" d="M450.5 56.5C452.38 56.229 453.713 56.896 454.5 58.5C452.847 58.34 451.514 57.674 450.5 56.5Z" fill="#362C24"/>
<path fill-rule="evenodd" clip-rule="evenodd" d="M533.5 18.5C535.638 25.692 537.804 33.025 540 40.5C542.537 43.372 545.37 45.872 548.5 48C554.544 49.395 560.544 50.895 566.5 52.5C560.597 54.315 554.597 55.815 548.5 57C545.37 59.128 542.537 61.628 540 64.5C537.245 71.601 535.245 78.934 534 86.5C532.308 79.063 530.308 71.729 528 64.5C525.795 61.96 523.295 59.793 520.5 58C513.827 56.165 507.161 54.332 500.5 52.5C507.207 50.988 513.873 49.155 520.5 47C525.116 44.382 528.283 40.549 530 35.5C531.329 29.853 532.496 24.187 533.5 18.5Z" fill="#F9AD4B"/>
<path fill-rule="evenodd" clip-rule="evenodd" d="M533.5 37.5C535.095 40.557 536.262 43.89 537 47.5C539.807 50.558 543.307 52.225 547.5 52.5C544.628 53.958 541.628 55.125 538.5 56C537.667 56.833 536.833 57.667 536 58.5C535.202 68.357 533.869 68.69 532 59.5C529.133 55.598 525.299 53.264 520.5 52.5C524.223 51.221 527.723 49.554 531 47.5C532.727 44.382 533.561 41.049 533.5 37.5Z" fill="#F69431"/>
<path fill-rule="evenodd" clip-rule="evenodd" d="M391.5 56.5C390.486 57.674 389.153 58.34 387.5 58.5C388.287 56.896 389.62 56.229 391.5 56.5Z" fill="#413B36"/>
<path fill-rule="evenodd" clip-rule="evenodd" d="M100.5 58.5C103.833 58.5 107.167 58.5 110.5 58.5C115.38 114.07 127.213 168.07 146 220.5C149.362 228.725 152.862 236.891 156.5 245C155.667 248.498 154.834 251.998 154 255.5C134.231 217.194 120.231 176.861 112 134.5C111.934 128.163 111.934 121.83 112 115.5C111.047 113.545 109.713 111.878 108 110.5C104.955 93.233 102.455 75.9 100.5 58.5Z" fill="#AEB6C0"/>
<path fill-rule="evenodd" clip-rule="evenodd" d="M431.5 50.5C434.273 51.657 437.273 52.324 440.5 52.5C443.678 54.009 447.011 55.342 450.5 56.5C451.514 57.674 452.847 58.34 454.5 58.5C457.128 60.488 459.795 62.488 462.5 64.5C462.5 65.5 462.5 66.5 462.5 67.5C433.995 67.831 405.662 67.498 377.5 66.5C377.5 66.167 377.5 65.833 377.5 65.5C379.749 64.92 381.415 63.587 382.5 61.5C384.027 61.573 385.027 60.906 385.5 59.5C386.492 59.672 387.158 59.338 387.5 58.5C389.153 58.34 390.486 57.674 391.5 56.5C393.153 56.34 394.486 55.674 395.5 54.5C397.553 54.598 399.22 53.931 400.5 52.5C410.745 50.776 421.078 50.11 431.5 50.5Z" fill="#F0F4F6"/>
<path fill-rule="evenodd" clip-rule="evenodd" d="M92.5 59.5C94.5 59.5 96.5 59.5 98.5 59.5C100.055 76.275 102.388 92.942 105.5 109.5C103.712 109.785 102.045 109.452 100.5 108.5C96.593 102.856 91.259 101.022 84.5 103C53.712 115.123 33.212 136.956 23 168.5C23.849 140.439 19.849 113.106 11 86.5C8.945 80.723 6.112 75.389 2.5 70.5C32.621 66.821 62.621 63.155 92.5 59.5Z" fill="#ACB4BF"/>
<path fill-rule="evenodd" clip-rule="evenodd" d="M237.5 60.5C240.448 60.223 243.281 60.556 246 61.5C251.974 80.475 251.974 99.475 246 118.5C242.216 131.732 236.55 144.065 229 155.5C216.667 173.167 204.333 190.833 192 208.5C188.437 214.354 186.603 220.688 186.5 227.5C182.808 228.029 179.642 227.029 177 224.5C176.19 219.743 176.524 215.076 178 210.5C182.245 201.669 187.245 193.336 193 185.5C209.172 165.644 222.505 143.977 233 120.5C239.751 100.896 241.251 80.896 237.5 60.5Z" fill="#ADB5C0"/>
<path fill-rule="evenodd" clip-rule="evenodd" d="M385.5 59.5C385.027 60.906 384.027 61.573 382.5 61.5C382.973 60.094 383.973 59.427 385.5 59.5Z" fill="#393330"/>
<path fill-rule="evenodd" clip-rule="evenodd" d="M382.5 61.5C381.415 63.587 379.749 64.92 377.5 65.5C378.585 63.413 380.251 62.08 382.5 61.5Z" fill="#5A5552"/>
<path fill-rule="evenodd" clip-rule="evenodd" d="M463.5 64.5C467.5 66.5 470.5 69.5 472.5 73.5C469.167 70.833 466.167 67.833 463.5 64.5Z" fill="#45311F"/>
<path fill-rule="evenodd" clip-rule="evenodd" d="M551.5 62.5C553.852 63.543 554.019 64.876 552 66.5C550.232 65.318 550.065 63.985 551.5 62.5Z" fill="#F2AA49"/>
<path fill-rule="evenodd" clip-rule="evenodd" d="M518.5 63.5C519.627 64.122 520.627 64.955 521.5 66C520.333 66.5 519.5 67.333 519 68.5C518.5 67.333 517.667 66.5 516.5 66C517.381 65.292 518.047 64.458 518.5 63.5Z" fill="#EDAA4E"/>
<path fill-rule="evenodd" clip-rule="evenodd" d="M571.5 64.5C603.167 64.5 634.833 64.5 666.5 64.5C667.257 81.496 667.924 98.496 668.5 115.5C666.712 115.785 665.045 115.452 663.5 114.5C660.793 109.36 656.459 107.027 650.5 107.5C639.65 108.506 629.65 112.006 620.5 118C603.005 129.823 589.839 145.323 581 164.5C582.382 145.554 582.715 126.554 582 107.5C580.835 92.51 577.335 78.177 571.5 64.5Z" fill="#ADB5BF"/>
<path fill-rule="evenodd" clip-rule="evenodd" d="M680.5 99.5C681.169 152.687 689.336 204.687 705 255.5C709.15 267.303 713.99 278.803 719.5 290C690.49 290.833 661.494 290.667 632.5 289.5C631.96 288.252 631.293 287.085 630.5 286C656.506 285.833 682.506 285.333 708.5 284.5C685.073 232.248 673.573 177.582 674 120.5C673.385 118.884 672.385 117.551 671 116.5C670.057 105.518 669.557 94.518 669.5 83.5C669.5 77.5 669.5 71.5 669.5 65.5C672.833 65.5 676.167 65.5 679.5 65.5C679.172 77.012 679.505 88.346 680.5 99.5Z" fill="#ADB5C0"/>
<path fill-rule="evenodd" clip-rule="evenodd" d="M283.5 65.5C298.166 67.167 312.833 68.833 327.5 70.5C302.622 132.225 293.456 196.225 300 262.5C301.345 271.07 302.845 279.57 304.5 288C289.082 287.565 273.749 286.065 258.5 283.5C269.313 252.728 279.313 221.728 288.5 190.5C286.712 190.215 285.045 190.548 283.5 191.5C278.237 208.358 271.071 224.358 262 239.5C261.346 240.696 260.846 240.696 260.5 239.5C266.634 221.933 272.467 204.266 278 186.5C299.399 155.252 304.066 121.586 292 85.5C289.43 78.696 286.597 72.03 283.5 65.5Z" fill="#ADB5BF"/>
<path fill-rule="evenodd" clip-rule="evenodd" d="M376.5 66.5C374.833 68.833 372.833 70.833 370.5 72.5C371.5 69.5 373.5 67.5 376.5 66.5Z" fill="#45392E"/>
<path fill-rule="evenodd" clip-rule="evenodd" d="M329.5 70.5C333.519 70.646 337.519 70.979 341.5 71.5C318.929 127.256 308.762 185.256 311 245.5C312.001 262.006 314.168 278.339 317.5 294.5C316 294.833 314.5 295.167 313 295.5C294.481 293.582 275.981 291.582 257.5 289.5C257.5 288.5 257.5 287.5 257.5 286.5C273.892 287.655 290.226 289.321 306.5 291.5C293.517 215.658 301.184 141.991 329.5 70.5Z" fill="#AEB5C0"/>
<path fill-rule="evenodd" clip-rule="evenodd" d="M472.5 73.5C474.531 74.539 475.864 76.205 476.5 78.5C474.457 77.421 473.124 75.754 472.5 73.5Z" fill="#46311F"/>
<path fill-rule="evenodd" clip-rule="evenodd" d="M680.5 99.5C679.505 88.346 679.172 77.012 679.5 65.5C676.167 65.5 672.833 65.5 669.5 65.5C669.5 71.5 669.5 77.5 669.5 83.5C668.51 77.355 668.177 71.022 668.5 64.5C672.5 64.5 676.5 64.5 680.5 64.5C680.5 76.167 680.5 87.833 680.5 99.5Z" fill="#DBDEE3"/>
<path fill-rule="evenodd" clip-rule="evenodd" d="M462.5 64.5C462.833 64.5 463.167 64.5 463.5 64.5C466.167 67.833 469.167 70.833 472.5 73.5C473.124 75.754 474.457 77.421 476.5 78.5C476.557 79.609 476.89 80.609 477.5 81.5C477.389 82.117 477.056 82.617 476.5 83C439.502 83.5 402.502 83.667 365.5 83.5C365.5 82.5 365.5 81.5 365.5 80.5C365.5 79.833 365.5 79.167 365.5 78.5C367.587 77.415 368.92 75.749 369.5 73.5C370.167 73.5 370.5 73.167 370.5 72.5C372.833 70.833 374.833 68.833 376.5 66.5C376.833 66.5 377.167 66.5 377.5 66.5C405.662 67.498 433.995 67.831 462.5 67.5C462.5 66.5 462.5 65.5 462.5 64.5Z" fill="#E6EEF2"/>
<path fill-rule="evenodd" clip-rule="evenodd" d="M369.5 73.5C368.92 75.749 367.587 77.415 365.5 78.5C366.08 76.251 367.413 74.585 369.5 73.5Z" fill="#48413A"/>
<path fill-rule="evenodd" clip-rule="evenodd" d="M365.5 78.5C365.5 79.167 365.5 79.833 365.5 80.5C364.833 80.833 364.167 81.167 363.5 81.5C363.427 79.973 364.094 78.973 365.5 78.5Z" fill="#3C352F"/>
<path fill-rule="evenodd" clip-rule="evenodd" d="M476.5 78.5C477.906 78.973 478.573 79.973 478.5 81.5C478.167 81.5 477.833 81.5 477.5 81.5C476.89 80.609 476.557 79.609 476.5 78.5Z" fill="#392F27"/>
<path fill-rule="evenodd" clip-rule="evenodd" d="M362.5 83.5C362.573 85.027 361.906 86.027 360.5 86.5C360.427 84.973 361.094 83.973 362.5 83.5Z" fill="#342B23"/>
<path fill-rule="evenodd" clip-rule="evenodd" d="M479.5 83.5C481.873 85.579 483.206 88.246 483.5 91.5C481.659 89.151 480.326 86.485 479.5 83.5Z" fill="#3D3025"/>
<path fill-rule="evenodd" clip-rule="evenodd" d="M360.5 87.5C360.34 89.153 359.674 90.486 358.5 91.5C358.229 89.62 358.896 88.287 360.5 87.5Z" fill="#3C332C"/>
<path fill-rule="evenodd" clip-rule="evenodd" d="M365.5 80.5C365.5 81.5 365.5 82.5 365.5 83.5C402.502 83.667 439.502 83.5 476.5 83C477.056 82.617 477.389 82.117 477.5 81.5C477.833 81.5 478.167 81.5 478.5 81.5C478.328 82.492 478.662 83.158 479.5 83.5C480.326 86.485 481.659 89.151 483.5 91.5C483.402 93.553 484.069 95.22 485.5 96.5C485.5 97.833 485.5 99.167 485.5 100.5C484.962 102.117 484.629 103.784 484.5 105.5C441.33 105.832 398.33 105.499 355.5 104.5C356.092 101.873 356.425 99.206 356.5 96.5C358.213 95.365 358.88 93.698 358.5 91.5C359.674 90.486 360.34 89.153 360.5 87.5C360.5 87.167 360.5 86.833 360.5 86.5C361.906 86.027 362.573 85.027 362.5 83.5C363.338 83.158 363.672 82.492 363.5 81.5C364.167 81.167 364.833 80.833 365.5 80.5Z" fill="#D7E5EB"/>
<path fill-rule="evenodd" clip-rule="evenodd" d="M358.5 91.5C358.88 93.698 358.213 95.365 356.5 96.5C356.402 94.447 357.069 92.78 358.5 91.5Z" fill="#5E5B58"/>
<path fill-rule="evenodd" clip-rule="evenodd" d="M483.5 91.5C484.931 92.78 485.598 94.447 485.5 96.5C484.069 95.22 483.402 93.553 483.5 91.5Z" fill="#312419"/>
<path fill-rule="evenodd" clip-rule="evenodd" d="M485.5 100.5C485.833 100.5 486.167 100.5 486.5 100.5C487.358 108.132 487.691 115.799 487.5 123.5C486.732 122.737 486.232 121.737 486 120.5C485.612 121.428 484.945 122.095 484 122.5C464 121.833 444 121.167 424 120.5C423.127 120.735 422.293 121.069 421.5 121.5C419.925 120.544 418.258 119.877 416.5 119.5C414.316 117.415 411.649 116.415 408.5 116.5C406.524 114.989 404.191 114.156 401.5 114C395.167 113.333 388.833 113.333 382.5 114C379.543 114.279 376.877 115.113 374.5 116.5C371.108 118.504 367.442 120.17 363.5 121.5C362.447 124.815 362.447 128.148 363.5 131.5C362.799 134.335 362.633 137.335 363 140.5C361.556 138.845 359.722 138.178 357.5 138.5C357.125 136.302 356.458 134.302 355.5 132.5C354.334 123.011 354.334 113.678 355.5 104.5C398.33 105.499 441.33 105.832 484.5 105.5C484.629 103.784 484.962 102.117 485.5 100.5Z" fill="#C6D9E1"/>
<path fill-rule="evenodd" clip-rule="evenodd" d="M87.4999 104.5C92.4889 103.391 96.1559 105.058 98.4999 109.5C71.2259 118.936 51.7259 136.936 39.9999 163.5C30.7289 188.562 30.0619 213.895 37.9999 239.5C43.4399 257.376 51.2739 274.043 61.4999 289.5C41.2769 292.784 20.9439 295.117 0.499936 296.5C0.260936 294.533 0.593936 292.699 1.49994 291C18.1859 289.146 34.8529 287.146 51.4999 285C28.5259 252.744 19.0259 216.91 22.9999 177.5C31.3879 141.295 52.8879 116.961 87.4999 104.5Z" fill="#ADB5C0"/>
<path fill-rule="evenodd" clip-rule="evenodd" d="M643.5 110.5C648.179 110.334 652.845 110.501 657.5 111C659.032 111.7 660.032 112.866 660.5 114.5C629.695 122.797 607.528 141.464 594 170.5C585.636 190.44 583.303 211.106 587 232.5C589.928 252.543 596.095 271.543 605.5 289.5C584.841 290.666 564.175 290.833 543.5 290C544.167 288.667 544.833 287.333 545.5 286C562.167 285.667 578.833 285.333 595.5 285C576.379 250.482 570.879 213.982 579 175.5C590.065 143.269 611.565 121.603 643.5 110.5Z" fill="#ADB5C0"/>
<path fill-rule="evenodd" clip-rule="evenodd" d="M408.5 116.5C402.872 115.575 397.205 114.908 391.5 114.5C385.795 114.908 380.128 115.575 374.5 116.5C376.877 115.113 379.543 114.279 382.5 114C388.833 113.333 395.167 113.333 401.5 114C404.191 114.156 406.524 114.989 408.5 116.5Z" fill="#747C80"/>
<path fill-rule="evenodd" clip-rule="evenodd" d="M356.5 96.5C356.425 99.206 356.092 101.873 355.5 104.5C354.334 113.678 354.334 123.011 355.5 132.5C354.71 131.391 354.21 130.058 354 128.5C353.333 120.167 353.333 111.833 354 103.5C354.39 100.896 355.224 98.562 356.5 96.5Z" fill="#4F4F4E"/>
<path fill-rule="evenodd" clip-rule="evenodd" d="M408.5 116.5C411.649 116.415 414.316 117.415 416.5 119.5C413.557 119.02 410.89 118.02 408.5 116.5Z" fill="#6B7478"/>
<path fill-rule="evenodd" clip-rule="evenodd" d="M486.5 100.5C487.268 101.263 487.768 102.263 488 103.5C488.667 112.833 488.667 122.167 488 131.5C487.617 132.056 487.117 132.389 486.5 132.5C486.704 129.482 487.037 126.482 487.5 123.5C487.691 115.799 487.358 108.132 486.5 100.5Z" fill="#4D4239"/>
<path fill-rule="evenodd" clip-rule="evenodd" d="M416.5 119.5C418.258 119.877 419.925 120.544 421.5 121.5C422.293 121.069 423.127 120.735 424 120.5C444 121.167 464 121.833 484 122.5C484.945 122.095 485.612 121.428 486 120.5C486.232 121.737 486.732 122.737 487.5 123.5C487.037 126.482 486.704 129.482 486.5 132.5C485.388 134.599 484.721 136.933 484.5 139.5C482.935 141.509 481.935 143.843 481.5 146.5C479.44 149.24 477.774 152.24 476.5 155.5C475.167 156.5 473.833 157.5 472.5 158.5C471.448 158.649 470.448 158.483 469.5 158C470.823 157.184 471.489 156.017 471.5 154.5C474.54 151.086 476.54 147.086 477.5 142.5C480.512 136.602 481.678 130.269 481 123.5C478.021 125.067 475.188 126.734 472.5 128.5C461.659 131.532 450.659 132.198 439.5 130.5C430.877 128.688 423.211 125.021 416.5 119.5Z" fill="#B5CDD7"/>
<path fill-rule="evenodd" clip-rule="evenodd" d="M108.5 131.5C115.828 164.111 125.661 196.111 138 227.5C142.806 238.446 148.139 249.112 154 259.5C154.145 263.523 154.979 267.356 156.5 271C132.207 274.329 107.873 276.996 83.5 279C64.078 244.782 63.578 210.282 82 175.5C91.107 160.944 99.941 146.277 108.5 131.5Z" fill="#ACB4BF"/>
<path fill-rule="evenodd" clip-rule="evenodd" d="M355.5 132.5C356.458 134.302 357.125 136.302 357.5 138.5C357.5 138.833 357.5 139.167 357.5 139.5C355.837 137.562 355.171 135.228 355.5 132.5Z" fill="#2F2A26"/>
<path fill-rule="evenodd" clip-rule="evenodd" d="M477.5 142.5C478.945 136.885 479.778 131.218 480 125.5C477.765 127.202 475.265 128.202 472.5 128.5C475.188 126.734 478.021 125.067 481 123.5C481.678 130.269 480.512 136.602 477.5 142.5Z" fill="#6B777C"/>
<path fill-rule="evenodd" clip-rule="evenodd" d="M408.5 116.5C410.89 118.02 413.557 119.02 416.5 119.5C423.211 125.021 430.877 128.688 439.5 130.5C440.263 131.268 441.263 131.768 442.5 132C449.5 132.667 456.5 132.667 463.5 132C466.865 131.495 469.865 130.328 472.5 128.5C475.265 128.202 477.765 127.202 480 125.5C479.778 131.218 478.945 136.885 477.5 142.5C477.167 142.5 476.833 142.5 476.5 142.5C439.876 143.487 403.21 143.821 366.5 143.5C364.996 139.652 363.996 135.652 363.5 131.5C362.447 128.148 362.447 124.815 363.5 121.5C367.442 120.17 371.108 118.504 374.5 116.5C380.128 115.575 385.795 114.908 391.5 114.5C397.205 114.908 402.872 115.575 408.5 116.5Z" fill="#E1EBF0"/>
<path fill-rule="evenodd" clip-rule="evenodd" d="M472.5 128.5C469.865 130.328 466.865 131.495 463.5 132C456.5 132.667 449.5 132.667 442.5 132C441.263 131.768 440.263 131.268 439.5 130.5C450.659 132.198 461.659 131.532 472.5 128.5Z" fill="#677378"/>
<path fill-rule="evenodd" clip-rule="evenodd" d="M486.5 132.5C486.662 134.527 486.495 136.527 486 138.5C485.617 139.056 485.117 139.389 484.5 139.5C484.721 136.933 485.388 134.599 486.5 132.5Z" fill="#4D331D"/>
<path fill-rule="evenodd" clip-rule="evenodd" d="M669.5 138.5C673.589 174.114 680.589 209.281 690.5 244C694.72 257.33 699.72 270.33 705.5 283C680.167 283.667 654.833 283.667 629.5 283C612.406 246.857 615.239 212.357 638 179.5C648.333 165.672 658.833 152.006 669.5 138.5Z" fill="#ACB4BF"/>
<path fill-rule="evenodd" clip-rule="evenodd" d="M476.5 142.5C475.105 146.29 473.438 149.957 471.5 153.5C437.863 152.827 404.196 152.16 370.5 151.5C369.167 148.833 367.833 146.167 366.5 143.5C403.21 143.821 439.876 143.487 476.5 142.5Z" fill="#D5E4EA"/>
<path fill-rule="evenodd" clip-rule="evenodd" d="M484.5 139.5C484.536 142.461 483.536 144.794 481.5 146.5C481.935 143.843 482.935 141.509 484.5 139.5Z" fill="#4F3620"/>
<path fill-rule="evenodd" clip-rule="evenodd" d="M360.5 146.5C361.674 147.514 362.34 148.847 362.5 150.5C360.896 149.713 360.229 148.38 360.5 146.5Z" fill="#322A21"/>
<path fill-rule="evenodd" clip-rule="evenodd" d="M476.5 142.5C476.833 142.5 477.167 142.5 477.5 142.5C476.54 147.086 474.54 151.086 471.5 154.5C471.5 154.167 471.5 153.833 471.5 153.5C473.438 149.957 475.105 146.29 476.5 142.5Z" fill="#606F75"/>
<path fill-rule="evenodd" clip-rule="evenodd" d="M362.5 150.5C363.906 150.973 364.573 151.973 364.5 153.5C363.094 153.027 362.427 152.027 362.5 150.5Z" fill="#2F2D2A"/>
<path fill-rule="evenodd" clip-rule="evenodd" d="M363.5 131.5C363.996 135.652 364.996 139.652 366.5 143.5C367.833 146.167 369.167 148.833 370.5 151.5C371.861 153.85 373.194 156.184 374.5 158.5C376.066 161.412 378.066 164.079 380.5 166.5C379.757 167.182 379.091 167.849 378.5 168.5C377.833 168.167 377.167 167.833 376.5 167.5C374.167 164.5 371.5 161.833 368.5 159.5C367.551 157.223 366.218 155.223 364.5 153.5C364.573 151.973 363.906 150.973 362.5 150.5C362.34 148.847 361.674 147.514 360.5 146.5C359.736 143.982 358.736 141.649 357.5 139.5C357.5 139.167 357.5 138.833 357.5 138.5C359.722 138.178 361.556 138.845 363 140.5C362.633 137.335 362.799 134.335 363.5 131.5Z" fill="#95B1BC"/>
<path fill-rule="evenodd" clip-rule="evenodd" d="M370.5 151.5C404.196 152.16 437.863 152.827 471.5 153.5C471.5 153.833 471.5 154.167 471.5 154.5C469.738 155.262 468.738 156.596 468.5 158.5C466.167 160.5 463.833 162.5 461.5 164.5C434.833 163.167 408.167 163.167 381.5 164.5C379.167 162.5 376.833 160.5 374.5 158.5C373.194 156.184 371.861 153.85 370.5 151.5Z" fill="#C5DAE2"/>
<path fill-rule="evenodd" clip-rule="evenodd" d="M476.5 155.5C475.92 157.749 474.587 159.415 472.5 160.5C472.5 159.833 472.5 159.167 472.5 158.5C473.833 157.5 475.167 156.5 476.5 155.5Z" fill="#392D22"/>
<path fill-rule="evenodd" clip-rule="evenodd" d="M368.5 159.5C371.5 161.833 374.167 164.5 376.5 167.5C372.833 165.833 370.167 163.167 368.5 159.5Z" fill="#3E2814"/>
<path fill-rule="evenodd" clip-rule="evenodd" d="M365.5 163.5C373.497 172.154 382.831 178.82 393.5 183.5C393.667 219.168 393.5 254.835 393 290.5C391.605 298.21 386.939 301.88 379 301.5C372.052 301.53 367.719 298.2 366 291.5C365.5 248.835 365.333 206.168 365.5 163.5Z" fill="#F5AE1C"/>
<path fill-rule="evenodd" clip-rule="evenodd" d="M468.5 158.5C465.833 163.167 462.167 166.833 457.5 169.5C458.833 167.833 460.167 166.167 461.5 164.5C463.833 162.5 466.167 160.5 468.5 158.5Z" fill="#596C73"/>
<path fill-rule="evenodd" clip-rule="evenodd" d="M470.5 162.5C469.833 165.167 468.167 166.833 465.5 167.5C466.833 165.5 468.5 163.833 470.5 162.5Z" fill="#462A0F"/>
<path fill-rule="evenodd" clip-rule="evenodd" d="M461.5 164.5C460.167 166.167 458.833 167.833 457.5 169.5C434.327 169.169 411.327 169.502 388.5 170.5C385.553 169.219 383.219 167.219 381.5 164.5C408.167 163.167 434.833 163.167 461.5 164.5Z" fill="#B4CEDA"/>
<path fill-rule="evenodd" clip-rule="evenodd" d="M374.5 158.5C376.833 160.5 379.167 162.5 381.5 164.5C383.219 167.219 385.553 169.219 388.5 170.5C405.86 181.463 424.36 183.463 444 176.5C445.762 176.944 445.595 177.444 443.5 178C438.323 179.961 432.99 181.294 427.5 182C428.448 182.483 429.448 182.649 430.5 182.5C430.5 182.833 430.5 183.167 430.5 183.5C430.167 183.5 429.833 183.5 429.5 183.5C421.483 183.499 413.483 183.166 405.5 182.5C403.901 182.768 402.568 182.434 401.5 181.5C400.01 179.72 398.01 179.054 395.5 179.5C388.566 177.549 382.899 173.882 378.5 168.5C379.091 167.849 379.757 167.182 380.5 166.5C378.066 164.079 376.066 161.412 374.5 158.5Z" fill="#6D8892"/>
<path fill-rule="evenodd" clip-rule="evenodd" d="M457.5 173.5C455.375 175.067 453.042 176.4 450.5 177.5C451.072 175.777 451.072 174.277 450.5 173C454.109 170.785 454.775 171.118 452.5 174C454.197 174.384 455.863 174.218 457.5 173.5Z" fill="#5A6569"/>
<path fill-rule="evenodd" clip-rule="evenodd" d="M471.5 154.5C471.489 156.017 470.823 157.184 469.5 158C470.448 158.483 471.448 158.649 472.5 158.5C472.5 159.167 472.5 159.833 472.5 160.5C471.5 160.833 470.833 161.5 470.5 162.5C468.5 163.833 466.833 165.5 465.5 167.5C462.527 169.147 459.86 171.147 457.5 173.5C455.863 174.218 454.197 174.384 452.5 174C454.775 171.118 454.109 170.785 450.5 173C451.072 174.277 451.072 175.777 450.5 177.5C449.508 177.328 448.842 177.662 448.5 178.5C445.458 178.733 442.792 179.733 440.5 181.5C440.167 181.5 439.833 181.5 439.5 181.5C436.518 181.963 433.518 182.296 430.5 182.5C429.448 182.649 428.448 182.483 427.5 182C432.99 181.294 438.323 179.961 443.5 178C445.595 177.444 445.762 176.944 444 176.5C424.36 183.463 405.86 181.463 388.5 170.5C411.327 169.502 434.327 169.169 457.5 169.5C462.167 166.833 465.833 163.167 468.5 158.5C468.738 156.596 469.738 155.262 471.5 154.5Z" fill="#9DBFCD"/>
<path fill-rule="evenodd" clip-rule="evenodd" d="M395.5 179.5C398.01 179.054 400.01 179.72 401.5 181.5C399.214 181.405 397.214 180.738 395.5 179.5Z" fill="#494D4D"/>
<path fill-rule="evenodd" clip-rule="evenodd" d="M448.5 178.5C446.302 180.397 443.636 181.397 440.5 181.5C442.792 179.733 445.458 178.733 448.5 178.5Z" fill="#35281D"/>
<path fill-rule="evenodd" clip-rule="evenodd" d="M439.5 181.5C436.829 183.118 433.829 183.785 430.5 183.5C430.5 183.167 430.5 182.833 430.5 182.5C433.518 182.296 436.518 181.963 439.5 181.5Z" fill="#2B2825"/>
<path fill-rule="evenodd" clip-rule="evenodd" d="M405.5 182.5C413.483 183.166 421.483 183.499 429.5 183.5C426.686 184.165 423.686 184.498 420.5 184.5C415.255 184.608 410.255 183.942 405.5 182.5Z" fill="#1E2428"/>
<path fill-rule="evenodd" clip-rule="evenodd" d="M446.5 184.5C470.83 211.665 494.997 238.998 519 266.5C524.758 281.904 519.592 291.237 503.5 294.5C500.302 294.378 497.302 293.545 494.5 292C462.474 256.751 430.807 221.251 399.5 185.5C415.234 189.64 430.9 189.307 446.5 184.5Z" fill="#F5AE1E"/>
<path fill-rule="evenodd" clip-rule="evenodd" d="M273.5 190.5C274.097 190.735 274.43 191.235 274.5 192C267.934 210.363 261.768 228.863 256 247.5C243.353 266.489 226.02 278.822 204 284.5C196.859 285.577 189.693 285.744 182.5 285C178.951 284.226 175.618 282.893 172.5 281C193.039 282.371 211.039 276.371 226.5 263C246.331 244.516 260.498 222.349 269 196.5C271.102 194.905 272.602 192.905 273.5 190.5Z" fill="#AEB5C0"/>
<path fill-rule="evenodd" clip-rule="evenodd" d="M264.5 200.5C256.189 226.524 241.189 248.357 219.5 266C204.539 276.831 187.872 280.831 169.5 278C166.554 277.194 163.888 275.861 161.5 274C162.428 273.612 163.095 272.945 163.5 272C161.467 268.102 159.3 264.268 157 260.5C156.209 256.074 156.543 251.741 158 247.5C160.745 253.325 163.745 258.992 167 264.5C168.258 251.211 170.924 238.211 175 225.5C178.412 228.879 182.578 230.379 187.5 230C188.167 232 189.5 233.333 191.5 234C198.642 234.822 205.642 234.155 212.5 232C232.295 225.282 249.629 214.782 264.5 200.5Z" fill="#ACB4BF"/>
<path fill-rule="evenodd" clip-rule="evenodd" d="M571.5 204.5C572.536 217.467 574.369 230.467 577 243.5C581.152 257.125 585.985 270.458 591.5 283.5C576.5 283.5 561.5 283.5 546.5 283.5C555.435 257.362 563.768 231.029 571.5 204.5Z" fill="#ADB5C0"/>
<path fill-rule="evenodd" clip-rule="evenodd" d="M18.5 206.5C22.72 233.984 32.387 259.484 47.5 283C32.583 285.528 17.583 287.361 2.5 288.5C8.691 261.357 14.024 234.024 18.5 206.5Z" fill="#ADB5C0"/>
<path fill-rule="evenodd" clip-rule="evenodd" d="M153.5 273.5C157.536 273.353 160.869 274.853 163.5 278C161.038 279.216 158.371 279.882 155.5 280C133.149 282.632 110.816 284.965 88.5 287C87.624 285.414 86.624 283.914 85.5 282.5C108.298 279.488 130.965 276.488 153.5 273.5Z" fill="#B0B7C2"/>
</svg>
